<?xml version="1.0" standalone="no"?>
<!DOCTYPE svg PUBLIC "-//W3C//DTD SVG 20010904//EN"
 "http://www.w3.org/TR/2001/REC-SVG-20010904/DTD/svg10.dtd">
<svg version="1.0" xmlns="http://www.w3.org/2000/svg"
 width="500.000000pt" height="500.000000pt" viewBox="0 0 500.000000 500.000000"
 preserveAspectRatio="xMidYMid meet">
<metadata>
Created by potrace 1.14, written by Peter Selinger 2001-2017
</metadata>
<g transform="translate(0.000000,500.000000) scale(0.100000,-0.100000)"
fill="#000000" stroke="none">
<path d="M2760 4969 c0 -10 -4 -20 -10 -24 -5 -3 -6 -13 -3 -22 5 -12 3 -14
-8 -8 -11 6 -11 5 -2 -5 9 -10 9 -19 -2 -41 -10 -18 -11 -30 -5 -34 6 -4 7
-11 4 -17 -4 -6 2 -6 15 1 15 8 21 9 21 1 0 -6 4 -9 9 -5 5 3 12 2 15 -3 3 -5
21 -8 40 -7 20 1 36 -1 36 -5 0 -4 9 -10 20 -13 15 -4 20 -14 20 -41 0 -20 -4
-36 -9 -36 -5 0 -8 -8 -6 -17 1 -10 -3 -24 -9 -32 -9 -12 -8 -13 3 -6 11 6 11
3 -1 -14 -10 -14 -14 -35 -11 -53 3 -22 1 -28 -8 -22 -9 5 -10 2 -6 -9 3 -10
2 -17 -3 -17 -6 0 -6 -9 0 -24 6 -17 5 -26 -2 -28 -6 -2 -12 -20 -14 -39 -1
-19 -3 -38 -3 -42 -1 -5 -5 -6 -9 -3 -5 3 -8 -13 -7 -34 1 -22 -2 -40 -8 -40
-5 0 -7 -13 -5 -30 3 -18 0 -30 -6 -30 -7 0 -11 -21 -11 -52 0 -52 1 -53 30
-54 52 -3 56 -4 52 -12 -3 -4 12 -8 33 -8 39 -1 39 -1 57 56 2 8 5 31 6 50 1
19 7 40 13 47 6 6 10 23 9 37 -2 14 1 28 6 32 5 3 9 20 9 39 0 19 4 37 10 40
5 3 8 16 6 28 -2 12 1 27 6 34 5 6 10 28 12 48 2 21 10 41 18 46 9 6 10 9 1 9
-17 0 -12 42 7 58 13 12 13 13 0 6 -12 -6 -13 -5 -4 7 6 8 10 22 9 31 -2 9 4
20 13 24 23 9 62 11 62 3 0 -12 80 -28 86 -17 4 6 10 5 15 -3 7 -11 11 -10 23
6 9 11 13 26 11 33 -2 6 1 12 7 12 7 0 7 4 -1 14 -9 10 -8 15 3 19 8 3 13 16
11 29 -5 43 -16 57 -43 56 -15 -1 -38 3 -52 8 -14 4 -32 9 -40 9 -8 1 -22 5
-30 8 -8 3 -28 8 -45 10 -16 2 -38 7 -48 12 -10 4 -21 5 -24 2 -3 -4 -15 -1
-26 5 -12 6 -34 11 -49 10 -15 0 -30 4 -33 9 -4 5 -24 9 -46 9 -21 0 -39 4
-39 8 0 5 -16 9 -35 9 -27 0 -35 -4 -35 -18z"/>
<path d="M1940 4918 c0 -4 -9 -5 -20 -3 -11 2 -20 0 -20 -4 0 -4 -16 -7 -35
-6 -19 2 -32 -1 -29 -6 3 -5 -1 -9 -8 -10 -7 0 -22 -3 -33 -5 -11 -3 -27 -7
-35 -8 -8 -2 -28 -8 -43 -15 -16 -6 -32 -9 -36 -6 -5 2 -16 -2 -27 -9 -10 -8
-24 -11 -32 -8 -14 5 -14 -2 4 -78 4 -14 7 -35 8 -47 0 -12 5 -21 11 -20 5 1
10 -4 11 -10 1 -7 3 -16 4 -20 1 -5 1 -19 0 -32 -1 -13 2 -21 7 -18 5 3 8 -7
7 -24 -1 -16 3 -29 8 -29 6 0 8 -11 6 -25 -4 -17 -1 -25 9 -25 8 0 13 -10 11
-27 -1 -16 3 -37 9 -48 6 -11 8 -26 6 -32 -3 -7 1 -13 7 -13 7 0 10 -6 7 -14
-3 -7 0 -19 6 -25 8 -8 8 -11 -2 -11 -9 0 -8 -4 3 -15 8 -8 13 -24 11 -34 -2
-11 3 -22 13 -26 14 -5 14 -7 2 -15 -10 -6 -11 -10 -3 -10 7 0 10 -7 7 -15 -4
-8 -2 -15 3 -15 9 0 13 -13 14 -52 0 -10 4 -18 8 -18 5 0 7 -11 6 -24 -2 -14
5 -32 16 -42 17 -16 20 -16 37 -1 12 11 22 13 32 7 10 -6 20 -4 31 6 9 8 20
14 25 13 21 -4 35 2 29 11 -3 6 -1 10 6 10 8 0 8 4 -1 15 -7 8 -10 22 -6 30 3
9 2 13 -4 10 -6 -3 -11 -3 -11 2 -1 4 -3 17 -4 28 -2 11 -8 40 -15 65 -6 25
-12 55 -13 67 0 12 -3 21 -6 21 -19 -2 -22 4 -10 19 8 9 12 19 9 22 -3 3 12 7
33 8 21 1 35 -2 32 -7 -3 -5 44 -58 104 -118 100 -100 112 -109 145 -108 20 0
38 6 40 13 3 7 16 10 30 7 15 -2 26 0 26 5 0 5 12 11 27 13 25 3 26 4 10 20
-9 9 -17 22 -17 28 0 6 -3 10 -7 8 -5 -2 -38 27 -74 64 -37 38 -64 68 -60 69
3 0 -4 4 -16 9 -13 5 -23 16 -23 25 0 8 -7 15 -16 15 -8 0 -13 4 -10 9 3 5 -1
12 -10 15 -14 5 -11 11 15 36 17 17 31 35 31 41 0 5 5 7 10 4 9 -6 14 8 11 29
-1 4 4 14 10 22 6 8 9 14 6 14 -3 0 -2 14 3 30 5 19 5 28 -1 25 -11 -8 -11 -3
0 28 8 20 6 27 -5 31 -8 3 -13 10 -9 16 3 5 -2 21 -11 35 -9 14 -13 25 -9 25
4 0 -14 20 -40 45 -25 25 -50 43 -56 40 -5 -4 -9 -1 -9 6 0 7 -3 9 -6 6 -4 -3
-16 -1 -28 5 -23 13 -106 17 -106 6z m67 -178 c2 0 3 -6 3 -14 0 -8 6 -16 13
-19 14 -5 15 -48 3 -85 -4 -12 -11 -20 -16 -17 -5 3 -11 1 -15 -5 -3 -5 -15
-10 -26 -10 -11 0 -18 -4 -14 -9 3 -6 -3 -8 -15 -6 -11 2 -22 -1 -25 -6 -4 -5
-10 -7 -15 -4 -5 3 -12 1 -15 -5 -5 -8 -11 -7 -21 1 -12 9 -12 15 -2 27 7 9 8
13 2 9 -6 -3 -16 5 -23 19 -8 18 -8 23 0 18 8 -5 8 -1 0 13 -13 26 -22 73 -13
74 4 0 21 3 37 5 17 2 40 5 53 7 12 1 22 7 22 14 0 8 9 9 32 2 18 -5 34 -9 35
-9z"/>
<path d="M3539 4761 c-1 -6 -3 -14 -4 -18 -2 -5 -6 -18 -10 -30 -4 -13 -11
-21 -15 -18 -4 2 -16 -16 -26 -40 -10 -25 -22 -45 -26 -45 -4 0 -7 -3 -6 -7 1
-5 -3 -18 -10 -30 -7 -13 -10 -23 -7 -23 3 0 -3 -8 -12 -18 -10 -11 -22 -17
-27 -14 -5 3 -6 0 -2 -6 4 -6 1 -22 -6 -34 -7 -13 -11 -29 -10 -36 2 -7 -2
-11 -9 -10 -6 2 -13 -5 -14 -14 -2 -10 -10 -25 -19 -34 -9 -8 -16 -20 -16 -26
0 -6 -8 -17 -17 -25 -10 -8 -12 -11 -5 -8 8 4 1 -12 -14 -36 -15 -24 -27 -46
-27 -49 1 -3 -3 -4 -7 -3 -4 1 -10 -11 -14 -28 -3 -17 -10 -28 -16 -24 -6 4
-7 -1 -3 -11 4 -12 3 -15 -5 -10 -8 4 -10 2 -6 -7 3 -8 -1 -21 -9 -29 -19 -19
-31 -58 -18 -58 6 0 11 -7 11 -16 0 -9 5 -12 12 -8 6 4 17 -1 25 -11 7 -11 13
-16 13 -12 0 4 14 0 30 -8 17 -9 29 -19 26 -23 -3 -4 3 -9 12 -9 16 -2 111
-51 177 -93 33 -20 60 -26 50 -10 -3 6 -1 10 4 10 6 0 11 6 11 13 0 7 9 23 20
35 11 12 20 27 20 35 0 7 3 17 7 21 10 10 13 37 3 31 -5 -3 -15 2 -23 10 -9 8
-21 15 -27 15 -10 0 -21 8 -55 38 -8 7 -18 13 -22 13 -4 0 -22 7 -40 16 -27
13 -30 18 -22 36 5 12 12 30 15 40 4 9 11 17 16 17 5 0 7 4 3 9 -3 5 -1 12 5
16 6 4 8 10 5 15 -3 5 4 8 15 7 11 -1 20 -5 20 -10 0 -4 4 -6 8 -3 5 3 18 -3
28 -12 10 -10 34 -25 52 -32 17 -8 32 -18 32 -22 0 -4 7 -4 17 -1 11 4 14 3 9
-5 -5 -8 -2 -10 8 -6 9 3 14 10 11 14 -3 5 2 13 11 18 9 5 15 12 15 16 -1 3 6
20 15 37 18 36 28 80 17 78 -19 -3 -34 2 -29 9 2 4 -5 9 -16 9 -12 1 -25 8
-29 15 -5 7 -9 9 -9 3 0 -5 -6 -3 -13 5 -7 8 -24 21 -38 29 -31 15 -32 34 -3
56 10 8 15 15 11 15 -12 0 24 58 40 64 7 3 13 1 13 -5 0 -5 18 -18 40 -28 22
-10 38 -20 35 -22 -2 -3 6 -6 18 -6 12 -1 23 -7 25 -13 2 -5 8 -10 14 -10 5 0
17 -7 26 -16 11 -11 17 -13 20 -5 2 6 9 8 14 5 6 -4 8 -3 5 3 -4 5 4 21 16 34
12 13 21 25 19 26 -1 2 5 17 13 34 16 29 15 31 -9 56 -14 13 -30 22 -36 18 -5
-3 -10 1 -10 9 0 9 -7 16 -15 16 -9 0 -27 7 -40 16 -14 9 -25 13 -25 9 0 -5
-8 2 -19 13 -10 12 -21 19 -24 15 -4 -3 -9 2 -13 11 -3 9 -17 16 -30 16 -13 0
-24 5 -24 11 0 5 -4 8 -9 4 -6 -3 -14 3 -20 12 -6 10 -11 14 -11 9 0 -5 -10
-1 -22 10 -13 12 -18 13 -13 4 8 -13 7 -13 -8 -1 -11 9 -17 10 -18 2z"/>
<path d="M1260 4667 c-14 -7 -34 -21 -45 -33 -11 -11 -28 -23 -37 -27 -19 -7
-20 -43 -2 -55 14 -10 49 -66 46 -74 -1 -5 4 -7 11 -5 6 1 11 -3 10 -10 -2 -6
9 -21 23 -32 14 -11 26 -29 27 -40 0 -11 4 -18 7 -16 8 5 30 -22 23 -29 -3 -3
2 -8 11 -12 9 -3 14 -10 11 -15 -3 -4 4 -13 15 -19 13 -7 19 -18 16 -26 -3 -8
1 -14 10 -14 8 0 13 -4 9 -9 -3 -5 4 -12 15 -16 11 -4 18 -10 15 -15 -3 -5 1
-14 8 -22 26 -25 41 -63 42 -105 2 -34 -2 -44 -17 -49 -10 -3 -16 -9 -13 -14
3 -4 -7 -16 -22 -25 -29 -19 -113 -29 -113 -13 0 5 -4 6 -10 3 -5 -3 -15 3
-22 15 -7 11 -19 20 -26 20 -7 0 -10 5 -6 11 3 6 -7 23 -22 38 -16 15 -30 33
-32 41 -2 8 -8 17 -13 18 -5 2 -9 9 -9 16 0 7 -13 25 -30 41 -16 15 -27 32
-25 36 3 4 -9 19 -27 34 -18 15 -26 24 -18 19 15 -8 -15 33 -35 48 -5 4 -6 8
-1 8 5 0 -4 13 -20 28 -16 16 -30 35 -32 43 -5 19 -14 27 -37 31 -11 1 -20 -3
-20 -9 0 -12 -45 -50 -45 -39 0 3 -10 -5 -23 -17 -27 -26 -28 -49 -4 -77 9
-11 17 -27 17 -34 0 -8 9 -18 20 -21 11 -3 20 -13 20 -21 0 -8 9 -22 20 -31
11 -10 20 -22 20 -29 0 -6 9 -19 20 -29 11 -10 20 -22 20 -27 0 -4 14 -22 30
-40 17 -17 30 -37 30 -43 0 -7 7 -16 16 -19 8 -3 13 -10 10 -15 -3 -5 1 -12
10 -15 8 -3 12 -10 9 -16 -3 -5 2 -10 11 -10 10 0 14 -3 11 -6 -4 -4 1 -14 11
-23 9 -9 22 -25 28 -36 7 -11 19 -19 28 -19 8 1 18 -6 21 -16 5 -16 39 -29 88
-35 10 -1 23 -7 29 -13 7 -7 19 -7 33 -2 13 5 26 6 29 3 3 -4 6 -1 6 4 0 6 11
10 25 8 14 -1 25 2 25 6 0 5 11 9 24 9 14 0 31 8 38 18 7 9 20 18 28 20 16 4
74 62 62 62 -4 0 -2 4 3 8 6 4 17 16 25 26 13 18 13 19 0 12 -8 -4 -7 -1 4 8
32 26 37 159 8 212 -6 12 -8 24 -5 28 3 3 1 6 -5 6 -7 0 -12 6 -12 14 0 7 -10
21 -22 30 -13 9 -16 14 -8 10 10 -5 8 1 -5 16 -11 13 -23 29 -27 35 -4 5 -21
27 -39 48 -17 20 -28 37 -24 37 5 0 -2 8 -13 19 -12 10 -22 23 -22 28 0 6 -14
24 -30 42 -17 17 -27 31 -23 31 5 1 -3 10 -16 20 -13 11 -20 20 -17 20 4 0 -2
10 -14 22 -11 12 -20 25 -20 30 0 10 -32 48 -40 47 -3 0 -16 -6 -30 -12z"/>
<path d="M4098 4262 c-16 -2 -28 -7 -28 -12 0 -4 -8 -7 -17 -5 -10 1 -22 0
-28 -4 -5 -3 -18 -7 -28 -8 -19 -3 -138 -63 -124 -63 4 0 -17 -24 -48 -53 -30
-30 -61 -70 -70 -90 -8 -20 -20 -37 -26 -37 -8 0 -7 -5 1 -15 9 -11 9 -15 1
-15 -7 0 -9 -4 -6 -10 3 -5 2 -10 -2 -10 -14 0 -10 -193 4 -208 7 -8 11 -17 8
-22 -3 -5 -1 -11 5 -15 6 -4 8 -11 5 -16 -4 -5 -2 -9 2 -9 5 0 17 -17 28 -37
22 -41 91 -114 100 -105 3 3 5 0 5 -6 0 -7 6 -11 13 -10 6 2 11 -3 9 -9 -1 -7
7 -13 18 -13 11 0 20 -4 20 -10 0 -23 33 -7 81 40 28 28 49 50 45 50 -4 0 -2
9 4 20 9 16 8 20 -5 20 -10 0 -13 5 -9 12 4 7 3 8 -4 4 -19 -11 -119 63 -105
78 4 3 0 6 -9 6 -16 0 -41 46 -33 61 4 5 1 9 -5 9 -6 0 -8 5 -5 10 4 6 3 16
-2 23 -11 14 -11 27 1 46 7 11 6 12 -5 6 -12 -7 -12 -6 -1 7 7 9 12 20 11 24
-9 37 108 168 138 157 12 -5 14 -3 8 7 -5 9 -4 11 4 6 6 -4 18 -2 26 4 8 7 15
9 15 5 0 -4 7 -1 17 6 13 11 17 11 20 1 3 -6 9 -10 14 -6 15 9 50 -6 43 -18
-5 -7 -2 -8 7 -2 20 12 40 14 33 3 -3 -5 1 -9 8 -9 17 -1 82 -61 86 -80 2 -8
9 -18 15 -22 12 -7 13 -11 16 -42 1 -18 36 -15 60 6 11 9 22 14 25 11 3 -4 6
1 6 11 0 9 5 14 10 11 6 -3 10 -1 10 5 0 6 4 9 9 6 5 -3 13 6 19 22 13 38 -14
88 -82 150 -10 9 -29 27 -41 38 -23 23 -82 56 -89 52 -2 -2 -13 6 -25 16 -12
11 -21 17 -21 14 0 -3 -17 -2 -37 3 -57 14 -66 15 -95 11z"/>
<path d="M2318 4076 c-9 -7 -34 -12 -55 -11 -21 1 -41 -3 -44 -8 -3 -4 -20 -9
-37 -9 -18 -1 -32 -5 -32 -10 0 -4 -15 -8 -34 -8 -19 0 -38 -5 -41 -10 -4 -6
-12 -10 -18 -9 -13 2 -41 -7 -69 -22 -10 -5 -25 -9 -33 -9 -8 0 -15 -4 -15
-10 0 -5 -3 -9 -7 -8 -15 3 -63 -14 -63 -23 0 -5 -9 -9 -21 -9 -11 0 -17 -4
-14 -10 3 -6 -1 -7 -9 -4 -9 3 -16 2 -16 -3 0 -6 -18 -16 -40 -23 -21 -7 -38
-16 -35 -19 4 -7 -52 -35 -57 -29 -6 5 -36 -27 -32 -33 4 -7 -26 -23 -38 -21
-5 1 -8 -3 -8 -9 0 -5 -4 -7 -10 -4 -5 3 -10 -1 -10 -10 0 -9 -4 -13 -10 -10
-5 3 -10 1 -10 -4 0 -6 -5 -11 -10 -11 -6 0 -60 -49 -121 -110 -61 -60 -115
-110 -120 -110 -6 0 -8 -4 -4 -9 3 -6 -4 -15 -15 -21 -11 -6 -18 -14 -16 -18
6 -11 -4 -25 -34 -45 -13 -9 -19 -17 -12 -17 7 0 2 -12 -13 -27 -14 -15 -25
-33 -25 -39 0 -7 -7 -15 -16 -18 -8 -3 -12 -10 -9 -16 3 -5 1 -10 -5 -10 -6 0
-9 -4 -5 -9 3 -6 -3 -14 -12 -20 -10 -6 -14 -11 -10 -11 9 0 -23 -61 -38 -72
-5 -4 -6 -8 -2 -8 4 0 2 -10 -5 -22 -7 -13 -11 -26 -10 -30 1 -5 -3 -8 -10 -8
-6 0 -8 -3 -5 -7 4 -3 0 -15 -10 -25 -9 -10 -13 -18 -8 -18 4 0 2 -7 -5 -15
-6 -8 -9 -18 -6 -24 3 -5 1 -11 -5 -13 -7 -2 -13 -16 -13 -32 -1 -15 -6 -30
-11 -34 -11 -7 -14 -20 -20 -64 -2 -15 -7 -33 -11 -40 -5 -7 -8 -23 -9 -35 0
-12 -3 -25 -7 -29 -5 -4 -8 -29 -8 -56 0 -26 -4 -48 -9 -48 -5 0 -8 -16 -6
-35 2 -22 -1 -35 -8 -35 -8 0 -8 -3 -2 -8 14 -10 15 -112 1 -112 -7 0 -7 -3
-1 -8 13 -9 14 -105 0 -114 -7 -5 -6 -8 1 -8 8 0 9 -11 4 -35 -5 -24 -4 -34 4
-32 6 1 10 -4 8 -10 -1 -7 3 -13 9 -13 5 0 7 -6 3 -12 -10 -16 -5 -81 6 -88 5
-3 7 -14 6 -25 -2 -11 1 -26 7 -33 5 -7 7 -15 4 -19 -4 -3 -3 -11 2 -17 5 -6
11 -26 14 -44 3 -18 11 -40 17 -48 7 -7 9 -14 5 -14 -4 0 -1 -8 6 -17 12 -14
12 -16 -1 -9 -12 6 -11 4 1 -6 9 -7 14 -19 12 -25 -3 -7 0 -13 6 -13 6 0 11
-9 11 -21 0 -11 5 -17 10 -14 5 3 10 -1 10 -10 0 -9 10 -31 22 -48 12 -17 16
-27 8 -22 -8 5 -4 -5 8 -22 12 -17 22 -36 22 -42 0 -6 4 -11 9 -11 5 0 14 -13
21 -30 7 -16 16 -30 21 -30 5 0 9 -6 9 -13 0 -7 9 -19 19 -27 11 -7 18 -17 15
-21 -3 -5 13 -27 36 -51 22 -24 40 -46 40 -50 0 -11 122 -132 159 -157 35 -25
54 -41 110 -91 35 -32 91 -66 104 -62 4 1 7 -5 7 -13 0 -8 7 -15 16 -15 8 0
35 -13 58 -30 24 -16 46 -26 50 -23 3 4 6 -1 6 -9 0 -9 6 -16 13 -15 32 1 48
-4 42 -13 -3 -5 0 -10 8 -10 8 0 41 -13 73 -29 99 -48 135 -62 145 -56 5 4 9
2 9 -2 0 -5 10 -9 22 -10 11 -1 24 -6 27 -11 3 -5 18 -8 34 -7 15 1 27 -2 27
-7 0 -5 5 -6 10 -3 6 3 10 3 10 -2 0 -4 12 -9 28 -10 54 -3 72 -7 72 -18 0 -5
4 -4 9 3 10 17 22 17 32 1 6 -10 55 -13 203 -14 108 0 196 3 196 8 0 4 4 6 9
2 5 -3 13 0 17 6 4 8 9 7 15 -2 5 -9 9 -10 9 -2 0 6 9 9 20 6 11 -3 20 -1 20
5 0 5 14 9 31 8 17 -1 33 3 36 9 2 7 15 11 29 9 13 -1 24 3 24 9 0 7 11 13 25
14 56 5 65 8 65 15 0 4 3 7 8 6 4 -1 17 3 29 10 12 7 28 11 35 10 7 -2 12 4
10 12 -2 8 0 12 3 8 4 -4 22 0 39 9 17 10 34 16 37 16 17 -5 1 44 -19 61 -23
18 -23 18 -38 0 -9 -11 -12 -12 -8 -4 7 13 5 13 -9 1 -9 -7 -17 -10 -17 -5 0
5 -4 4 -8 -2 -11 -17 -71 -46 -82 -39 -5 3 -7 14 -5 25 2 11 -1 20 -6 20 -6 0
-7 5 -4 10 3 6 3 10 -2 10 -4 0 -8 19 -9 41 -1 23 -7 45 -15 50 -8 5 -9 9 -4
9 6 0 9 23 7 55 -2 30 -7 55 -12 55 -10 0 -4 166 8 212 7 25 6 38 -1 41 -5 1
18 32 51 67 34 35 62 68 62 73 0 4 5 5 10 2 6 -3 11 -1 11 4 1 6 2 16 3 22 0
6 9 16 18 23 10 7 15 16 11 19 -3 4 -1 7 6 7 7 0 9 5 6 10 -3 6 -2 10 2 10 11
0 58 92 61 120 0 3 6 19 12 35 6 17 13 44 16 60 2 17 7 47 10 68 4 26 2 37 -6
37 -7 0 -10 7 -6 15 3 8 0 20 -7 27 -7 7 -12 22 -12 33 1 11 -7 39 -17 63 -9
23 -15 48 -12 56 3 8 -1 20 -9 27 -8 7 -12 21 -10 30 3 9 0 20 -6 23 -6 4 -11
20 -11 35 0 15 -3 31 -7 35 -4 3 -8 14 -9 22 -1 9 -6 23 -10 32 -11 25 -11 24
-19 60 -4 17 -12 32 -17 32 -5 0 -6 5 -3 10 3 6 0 10 -8 10 -9 0 -1 14 19 36
19 20 32 40 29 45 -4 5 -2 9 3 9 5 0 13 10 16 23 11 36 12 177 2 177 -6 0 -5
5 2 12 8 8 8 16 -1 32 -6 12 -12 37 -12 58 -1 20 -9 52 -20 71 -18 35 -67 72
-79 60 -3 -3 -6 -2 -6 4 0 11 -3 12 -85 15 -36 2 -65 -2 -72 -9 -7 -6 -21 -10
-30 -9 -10 2 -24 -3 -31 -11 -8 -7 -18 -11 -23 -8 -5 4 -9 0 -9 -8 0 -8 -7
-18 -16 -21 -8 -3 -12 -10 -9 -16 3 -5 1 -10 -5 -10 -6 0 -9 -4 -5 -9 3 -6 -3
-14 -12 -20 -10 -6 -14 -11 -9 -11 5 0 3 -7 -4 -15 -10 -12 -10 -15 0 -15 10
0 9 -4 -1 -16 -7 -9 -14 -21 -15 -28 -3 -17 -23 -66 -27 -66 -3 0 -2 481 2
488 0 1 11 -2 22 -9 12 -6 19 -7 16 -2 -3 5 21 9 56 8 52 -1 64 2 73 19 14 24
8 46 -13 46 -8 0 -12 4 -9 9 3 4 -39 8 -94 7 -55 0 -100 3 -100 7 0 11 -30 41
-30 30 0 -4 -7 0 -14 9 -7 10 -23 19 -34 21 -12 2 -25 6 -28 10 -24 24 -181
-22 -185 -53 -1 -6 -2 -15 -3 -21 0 -7 -10 -15 -20 -19 -14 -5 -16 -9 -7 -14
18 -12 -5 -35 -29 -29 -11 3 -18 9 -15 12 2 4 -1 8 -8 9 -96 8 -103 8 -114 -7
-10 -12 -12 -13 -13 -2 0 11 -3 11 -15 1 -8 -7 -15 -9 -15 -4 0 5 -7 -2 -16
-14 -8 -12 -20 -20 -25 -17 -8 5 -10 1 -9 -20 1 -9 -25 -33 -30 -30 -3 2 -7
-11 -8 -28 -3 -39 -31 -85 -41 -68 -11 18 -96 34 -116 22 -5 -3 -16 -6 -24 -8
-8 -1 -17 -7 -21 -13 -4 -7 -11 -11 -16 -11 -5 1 -26 -15 -46 -34 -27 -27 -35
-42 -32 -61 2 -13 0 -24 -6 -24 -6 0 -9 -4 -6 -8 2 -4 1 -14 -4 -22 -4 -7 -4
-24 1 -37 5 -14 5 -23 -1 -23 -6 0 -10 -7 -10 -15 0 -8 -9 -23 -19 -32 -11 -9
-18 -20 -15 -25 3 -4 0 -8 -6 -8 -6 0 -8 -4 -5 -10 3 -5 1 -10 -5 -10 -7 0 -9
-7 -6 -16 3 -8 2 -12 -4 -9 -9 6 -14 -8 -11 -27 0 -5 -4 -8 -10 -8 -6 0 -9 -6
-6 -12 2 -7 -2 -26 -10 -41 -8 -15 -11 -33 -7 -39 4 -7 3 -8 -4 -4 -11 7 -17
-11 -13 -41 1 -7 -3 -13 -8 -13 -6 0 -10 -15 -9 -33 1 -18 -3 -41 -9 -52 -11
-23 -12 -324 -1 -341 4 -6 9 -25 10 -43 1 -17 7 -31 12 -31 5 0 7 -3 4 -6 -4
-3 -2 -20 3 -37 6 -18 12 -40 14 -49 2 -9 11 -28 20 -42 10 -14 13 -26 9 -26
-5 0 -4 -4 1 -8 15 -11 35 -50 35 -67 0 -9 5 -13 10 -10 6 3 10 -3 10 -14 0
-12 5 -21 10 -21 6 0 10 -6 10 -13 0 -7 9 -23 20 -35 11 -12 20 -29 20 -38 0
-10 3 -15 6 -11 7 7 45 -24 39 -33 -2 -3 9 -15 25 -25 16 -11 35 -31 42 -45 7
-14 31 -43 54 -66 47 -47 72 -92 67 -120 -2 -10 -4 -23 -3 -29 5 -78 5 -125
-1 -125 -5 0 -5 -7 -2 -17 4 -11 3 -14 -5 -9 -7 4 -12 2 -12 -3 0 -14 -38 6
-62 32 -9 10 -19 17 -21 15 -9 -5 -88 46 -123 79 -19 18 -34 29 -34 25 -1 -4
-7 4 -15 18 -8 14 -14 19 -15 11 0 -11 -3 -12 -11 -4 -14 14 -35 -4 -41 -33
-3 -20 55 -87 66 -76 3 3 6 0 6 -6 0 -7 7 -12 15 -12 8 0 19 -9 25 -20 6 -11
17 -20 25 -20 8 0 15 -4 15 -10 0 -5 7 -10 15 -10 9 0 18 -6 21 -14 3 -8 13
-12 25 -9 10 3 19 1 19 -4 0 -6 19 -18 43 -28 61 -27 72 -43 73 -97 0 -27 -4
-48 -8 -48 -4 0 -4 -10 0 -22 5 -13 8 -29 8 -37 -1 -16 -26 -28 -26 -12 0 6
-6 8 -13 5 -8 -3 -20 2 -27 11 -7 8 -18 15 -24 15 -6 0 -4 -5 4 -10 9 -6 10
-10 3 -10 -6 0 -15 5 -18 10 -4 6 -22 17 -41 25 -19 8 -37 21 -40 29 -3 8 -12
12 -20 9 -7 -3 -17 2 -20 11 -3 9 -10 14 -14 11 -4 -3 -13 2 -20 10 -7 8 -18
15 -26 15 -7 0 -19 8 -26 18 -7 9 -19 18 -27 20 -8 2 -23 12 -32 23 -10 11
-21 20 -26 20 -12 0 -53 37 -53 50 0 5 -5 7 -10 4 -11 -7 -210 187 -210 204 0
5 -15 25 -32 44 -44 47 -58 65 -58 75 0 5 -9 17 -20 27 -11 10 -17 21 -15 25
3 4 -2 13 -10 20 -8 7 -12 16 -9 21 3 5 1 9 -4 9 -5 0 -15 14 -22 30 -7 17
-16 30 -21 30 -5 0 -6 7 -2 15 3 9 2 15 -3 14 -21 -3 -28 2 -14 11 12 7 12 12
-4 29 -11 12 -15 21 -10 21 5 0 3 4 -5 9 -7 5 -13 20 -13 35 0 14 -5 26 -10
26 -6 0 -8 6 -5 14 3 7 -1 23 -9 35 -8 11 -12 21 -8 21 5 0 3 5 -4 12 -7 7
-12 27 -12 45 0 18 -4 33 -8 33 -4 0 -8 16 -9 35 0 19 -4 42 -8 52 -11 27 -13
293 -2 293 6 0 6 5 0 13 -11 14 -10 101 2 137 4 14 9 36 11 50 7 59 17 100 24
100 4 0 7 12 6 28 -1 15 4 33 11 40 7 7 10 19 7 27 -4 8 -1 15 5 15 6 0 11 8
11 18 0 9 7 30 15 46 8 15 15 37 15 47 0 11 4 19 10 19 5 0 12 16 16 35 3 19
10 32 15 29 5 -3 9 2 9 11 0 9 13 36 30 59 16 24 30 50 32 57 2 8 11 22 21 31
10 9 18 20 18 25 0 4 8 17 17 28 10 11 18 24 19 29 1 5 8 13 17 18 9 5 14 13
11 18 -3 5 4 11 15 15 11 4 18 11 15 16 -4 5 0 9 7 9 7 0 24 16 38 34 14 19
28 32 33 29 4 -2 6 0 5 4 -4 12 58 83 72 83 13 0 56 43 52 53 -1 4 3 7 9 7 6
0 17 7 26 15 8 8 19 12 25 9 7 -4 8 -2 4 4 -4 7 -2 12 4 12 6 0 18 7 27 15 8
8 19 12 25 9 6 -4 8 -2 4 4 -3 6 3 13 14 17 11 3 20 11 20 16 0 6 5 7 10 4 6
-3 10 -2 10 2 0 9 76 47 93 48 4 0 11 6 16 13 4 7 14 15 22 17 39 9 59 18 59
28 0 6 3 7 7 4 3 -4 12 -2 20 4 10 9 13 8 13 -2 1 -10 4 -9 14 4 8 10 20 15
30 11 9 -3 16 -1 16 5 0 6 9 11 20 11 11 0 28 4 38 9 29 16 56 24 85 25 16 1
32 7 36 14 5 8 16 9 40 2 23 -6 33 -6 37 3 3 8 25 12 62 12 31 0 63 3 70 8 7
6 12 6 12 -1 0 -12 22 -10 41 3 8 6 39 9 69 8 77 -3 90 -5 90 -14 0 -16 38 4
48 25 14 32 -9 59 -53 60 -19 1 -37 -3 -39 -9 -3 -7 -7 -7 -13 0 -10 12 -83
13 -102 1 -7 -5 -16 -5 -20 0 -9 13 -41 14 -41 2 0 -7 -5 -7 -12 -1 -12 8 -30
10 -43 3 -12 -6 -30 -5 -35 1 -3 4 -13 2 -22 -5z m251 -605 c5 -7 11 -12 15
-12 20 3 26 -1 26 -14 0 -8 4 -15 10 -15 6 0 9 -160 10 -421 0 -434 2 -453 40
-441 17 6 46 43 42 55 -1 4 3 7 9 7 5 0 7 5 4 10 -3 6 0 10 7 11 9 0 9 2 2 5
-14 6 -6 44 8 44 6 0 8 7 5 15 -4 8 -2 17 4 20 5 4 7 11 4 16 -4 5 -2 9 3 9
13 0 11 30 -2 30 -6 0 -3 7 6 14 10 7 19 25 20 40 1 14 6 26 10 26 4 0 5 9 3
20 -2 11 1 20 6 20 6 0 7 5 4 10 -3 6 -1 10 5 10 7 0 10 7 7 15 -4 8 -2 17 3
20 6 4 10 15 10 26 0 10 5 19 12 19 6 0 8 3 5 6 -3 4 -1 16 5 28 7 11 11 24
10 28 -1 3 18 14 41 22 44 16 122 17 146 2 10 -6 12 -6 6 3 -5 10 -2 9 13 0
23 -14 36 -49 19 -49 -6 0 -2 -7 9 -16 10 -8 12 -12 4 -8 -12 6 -13 5 -4 -7
18 -23 15 -228 -4 -261 -23 -39 -68 -36 -109 10 -18 19 -34 42 -35 51 0 9 -2
21 -3 26 -2 6 -3 18 -4 28 0 10 -5 16 -10 13 -4 -3 -7 12 -5 34 2 32 -1 42
-17 51 -17 9 -25 6 -45 -16 -18 -20 -22 -30 -14 -40 6 -7 8 -20 4 -29 -3 -9
-2 -16 3 -16 10 0 10 -41 0 -57 -4 -6 0 -14 9 -17 9 -4 14 -9 11 -13 -3 -3 7
-25 24 -49 16 -24 25 -44 20 -44 -11 0 -65 -56 -60 -62 2 -2 -6 -13 -16 -26
-11 -12 -21 -27 -21 -32 -1 -6 -2 -15 -3 -21 0 -5 -4 -8 -8 -6 -5 3 -5 -45 -1
-106 11 -169 11 -167 27 -167 11 0 10 -4 -5 -19 -10 -10 -22 -17 -26 -14 -9 5
-91 -36 -100 -51 -4 -6 -8 -7 -8 -3 0 4 -6 3 -12 -3 -7 -6 -22 -18 -34 -28
-31 -25 -35 -47 -13 -66 22 -18 39 -21 39 -6 0 5 3 9 8 8 15 -3 42 15 42 28 0
7 6 11 14 8 8 -3 17 0 21 5 3 6 11 9 16 6 5 -4 9 -2 9 3 0 9 31 23 56 26 6 1
18 6 25 12 8 6 22 10 32 9 21 -4 32 33 23 73 -4 15 -10 39 -13 54 -3 15 -8 26
-12 23 -4 -2 -7 13 -7 33 1 20 -4 52 -10 71 -9 27 -9 38 1 48 7 7 11 22 8 33
-3 12 0 20 6 20 7 0 10 4 7 9 -3 5 8 23 24 41 17 18 30 28 30 24 0 -4 5 -3 12
4 35 35 101 -20 107 -91 1 -5 5 -6 10 -3 4 3 6 -6 3 -19 -2 -14 0 -25 5 -25 6
0 10 -13 11 -30 0 -16 4 -35 9 -42 4 -7 8 -17 10 -23 1 -5 8 -35 16 -65 9 -30
13 -58 11 -62 -3 -5 1 -8 8 -8 9 0 13 -10 12 -30 -1 -17 2 -33 7 -36 5 -3 9
-16 9 -30 0 -13 4 -24 9 -24 5 0 8 -13 7 -30 0 -17 -4 -30 -8 -30 -5 0 -8 -18
-8 -40 0 -23 -5 -40 -11 -40 -6 0 -9 -6 -6 -14 3 -7 -1 -23 -8 -34 -8 -10 -11
-22 -8 -26 3 -3 2 -6 -4 -6 -9 0 -21 -24 -27 -52 0 -3 -11 -18 -23 -32 -13
-14 -20 -26 -17 -26 12 0 -145 -146 -172 -160 -16 -8 -36 -20 -44 -26 -8 -7
-19 -13 -25 -14 -5 -1 -28 -11 -50 -23 -44 -23 -49 -24 -115 -31 -25 -3 -46
-9 -47 -13 -3 -7 -87 -9 -103 -3 -3 2 -9 1 -15 0 -11 -2 -100 -1 -127 2 -10 1
-18 5 -18 9 0 4 -12 6 -26 4 -14 -1 -28 3 -30 10 -3 7 -18 11 -35 9 -16 -2
-29 1 -29 7 0 6 -7 9 -15 5 -9 -3 -15 0 -15 9 0 9 -6 12 -15 9 -8 -4 -15 -1
-15 6 0 6 -4 8 -10 5 -5 -3 -10 -1 -10 5 0 6 -4 8 -10 5 -5 -3 -10 -1 -10 5 0
7 -7 9 -15 6 -9 -3 -18 1 -21 9 -4 8 -13 15 -20 15 -8 0 -17 7 -20 15 -4 8
-10 12 -15 9 -5 -3 -9 -1 -9 5 0 13 -83 96 -92 93 -5 -1 -8 5 -8 12 0 8 -11
27 -25 42 -14 15 -23 29 -21 32 3 2 -2 11 -10 19 -8 8 -12 19 -9 24 4 5 1 9
-5 9 -6 0 -8 5 -5 10 3 6 1 10 -5 10 -6 0 -8 5 -5 10 3 6 1 10 -5 10 -6 0 -9
4 -6 8 3 5 -1 20 -9 35 -8 15 -9 27 -4 27 5 0 3 12 -4 28 -11 22 -14 126 -13
547 1 291 5 526 10 534 7 10 6 12 -4 6 -8 -5 -4 6 9 23 12 18 29 32 37 32 8 0
14 4 14 9 0 14 60 7 95 -10 18 -8 34 -27 40 -46 6 -18 10 -141 10 -291 l0
-261 24 -11 c20 -9 27 -9 37 4 6 9 14 13 17 9 7 -6 12 32 7 52 -6 27 -5 51 3
63 6 7 5 17 -2 26 -8 10 -9 16 -1 21 6 3 7 12 3 18 -10 17 -11 47 -2 53 5 2 4
16 -1 30 -7 18 -7 23 1 18 8 -5 8 -1 0 14 -7 13 -7 23 -1 27 5 3 6 15 1 27 -4
12 -5 37 -1 55 5 18 4 35 -1 38 -4 3 -5 16 0 28 5 12 5 31 1 42 -4 11 -4 34 0
52 4 18 5 35 2 38 -10 10 -4 109 7 113 6 2 11 9 11 16 0 18 37 49 49 42 5 -4
12 -3 15 2 7 11 66 2 66 -10 0 -5 5 -6 10 -3 6 3 10 1 10 -5 0 -6 4 -8 10 -5
5 3 12 -6 16 -20 3 -14 9 -25 13 -25 3 0 5 -159 5 -353 -1 -193 1 -356 5 -362
10 -16 42 -14 60 4 15 15 16 54 16 411 -1 308 2 401 12 423 8 15 10 27 6 27
-5 1 8 9 27 19 40 20 97 22 109 2z m-833 -636 c-4 -14 -2 -25 2 -25 5 0 6 -18
2 -40 -5 -27 -4 -40 4 -41 8 0 8 -2 0 -5 -8 -3 -9 -16 -4 -39 4 -19 5 -35 1
-35 -4 0 -8 -7 -8 -15 0 -8 5 -15 11 -15 6 0 6 -4 -1 -11 -7 -7 -8 -20 -3 -34
4 -12 5 -28 0 -35 -5 -7 -4 -24 1 -37 5 -12 5 -23 1 -23 -11 0 -8 -204 3 -212
6 -5 5 -8 -2 -8 -9 0 -10 -7 -3 -25 5 -14 6 -25 1 -25 -4 0 -8 -7 -8 -15 0 -8
4 -15 9 -15 5 0 4 -8 -1 -19 -6 -10 -9 -20 -7 -22 2 -2 6 -20 10 -39 6 -31 5
-33 -8 -15 -7 11 -12 24 -9 30 2 7 -3 18 -11 25 -9 7 -13 16 -10 21 3 5 1 9
-4 9 -9 0 -14 22 -26 105 -2 16 -9 31 -14 33 -8 2 -8 12 -2 28 6 14 6 23 2 20
-5 -3 -8 10 -8 29 1 18 4 31 8 29 3 -2 4 5 1 16 -3 11 -8 20 -12 20 -13 0 -10
45 4 66 7 11 10 26 5 33 -4 7 -4 28 0 47 5 23 4 34 -4 34 -6 0 -4 6 4 13 9 7
15 26 14 45 0 18 3 35 7 38 5 3 9 16 9 30 0 13 5 24 10 24 6 0 10 7 10 15 0
16 21 65 28 65 2 0 1 -11 -2 -25z m397 -1297 c12 -7 30 -19 40 -27 12 -10 17
-11 17 -2 0 7 5 9 10 6 6 -4 8 -10 5 -14 -2 -5 7 -8 21 -8 15 0 29 -4 33 -9 3
-5 19 -10 35 -11 16 -1 33 -8 38 -15 4 -8 8 -8 8 -2 0 6 7 11 15 11 8 0 15 -4
15 -9 0 -5 9 -4 20 2 18 10 24 7 22 -11 -2 -11 193 -3 216 9 13 8 22 9 22 3 0
-7 9 -7 23 -2 12 4 28 6 36 3 9 -3 11 0 6 8 -6 10 -4 12 8 7 9 -3 19 -2 22 2
3 5 14 7 25 4 12 -3 20 0 20 6 0 7 6 11 13 10 19 -2 57 12 57 22 0 5 7 5 17 2
11 -4 14 -3 9 5 -5 8 1 12 16 12 21 0 24 -5 24 -45 1 -27 -3 -42 -9 -38 -6 4
-7 1 -1 -8 13 -21 15 -81 2 -73 -7 5 -8 2 -2 -7 5 -8 9 -41 10 -74 1 -33 5
-73 9 -90 5 -16 9 -43 10 -60 1 -16 3 -31 5 -32 1 -2 3 -11 5 -20 1 -10 5 -27
9 -38 16 -40 15 -42 -15 -39 -21 3 -28 0 -23 -8 5 -8 2 -9 -9 -5 -9 3 -19 2
-22 -4 -4 -5 -11 -7 -16 -4 -5 4 -9 2 -9 -3 0 -4 -15 -8 -32 -7 -38 1 -60 -4
-54 -14 2 -3 -20 -5 -50 -4 -30 0 -54 -2 -54 -6 0 -4 -34 -8 -75 -8 -41 0 -75
4 -75 8 0 3 -34 7 -76 7 -42 0 -80 5 -83 10 -3 5 -22 8 -41 7 -19 -1 -40 2
-47 7 -7 5 -22 11 -35 13 -23 4 -59 12 -68 15 -3 1 -8 2 -12 1 -5 0 -8 3 -8 8
0 5 -9 7 -20 4 -12 -3 -22 1 -26 10 -3 9 -13 13 -26 9 -17 -4 -19 -2 -10 14 5
11 9 115 8 247 -1 143 3 229 9 231 6 3 11 5 13 5 1 1 12 -5 25 -11z"/>
<path d="M2856 4081 c-4 -7 -14 -10 -21 -7 -29 11 -34 -54 -5 -72 17 -10 21
-10 26 3 3 8 10 13 14 10 4 -3 11 3 14 12 4 9 2 20 -5 23 -6 4 -10 10 -9 14 1
4 0 12 -2 18 -3 9 -6 9 -12 -1z"/>
<path d="M598 3945 c-3 -3 -18 -8 -34 -11 -16 -3 -31 -9 -34 -14 -3 -5 -17
-11 -32 -15 -15 -4 -29 -13 -32 -22 -3 -8 -10 -11 -16 -8 -5 3 -10 1 -10 -4 0
-6 -19 -30 -43 -54 -24 -23 -44 -45 -45 -50 -1 -4 -9 -21 -17 -37 -9 -17 -12
-30 -9 -30 4 0 -1 -10 -12 -22 -12 -13 -22 -41 -23 -63 -2 -22 -6 -44 -9 -50
-10 -15 -10 -75 0 -75 4 0 8 -16 8 -35 0 -19 4 -35 8 -35 7 0 12 -19 15 -62 1
-9 3 -15 5 -13 6 6 41 -28 37 -36 -6 -9 87 -104 99 -101 4 2 17 -7 27 -19 11
-12 22 -19 26 -16 3 4 13 1 22 -7 9 -8 19 -15 24 -15 4 -1 8 -1 10 -2 1 0 10
-2 20 -4 10 -2 26 -7 35 -11 23 -10 182 -11 182 -2 0 5 7 8 16 8 25 0 105 40
111 55 3 8 9 13 13 10 11 -7 60 38 60 54 0 6 5 11 10 11 6 0 10 7 10 16 0 8 5
12 10 9 9 -5 11 -1 10 20 -1 3 6 13 15 21 8 9 15 21 15 28 0 8 7 19 15 26 9 7
14 19 11 26 -3 7 -1 16 5 19 5 4 7 10 4 15 -3 5 -1 11 3 14 12 7 7 155 -7 189
-6 15 -8 27 -4 27 4 0 -2 7 -13 16 -10 8 -12 12 -4 8 10 -5 9 0 -4 14 -11 12
-15 22 -11 22 4 0 -2 8 -13 19 -12 10 -22 24 -22 30 0 12 -68 76 -81 76 -5 0
-15 9 -23 20 -8 11 -17 17 -21 13 -7 -6 -15 -2 -48 28 -7 6 -23 9 -35 8 -12
-2 -22 1 -22 6 0 10 -192 15 -202 5z m172 -186 c3 -3 23 -15 45 -26 22 -11 39
-25 38 -31 -2 -7 1 -12 7 -12 15 0 61 -51 54 -61 -3 -5 0 -16 6 -24 14 -17 21
-115 8 -115 -5 0 -7 -4 -3 -9 3 -5 1 -12 -5 -16 -6 -4 -8 -11 -5 -16 4 -5 0
-12 -9 -15 -9 -3 -12 -12 -9 -21 4 -9 2 -14 -3 -11 -5 3 -17 -3 -26 -14 -10
-10 -15 -18 -12 -18 9 0 -20 -26 -44 -39 -12 -7 -26 -9 -31 -6 -5 3 -11 0 -13
-6 -4 -13 -71 -15 -118 -4 -19 5 -38 8 -43 7 -4 -1 -6 3 -5 10 2 7 -4 12 -12
13 -18 0 -100 78 -100 94 0 6 -4 11 -8 11 -4 0 -9 12 -10 27 -1 15 -5 29 -10
32 -11 9 -8 47 6 63 6 8 9 18 6 21 -19 19 64 130 121 163 22 12 167 15 175 3z"/>
<path d="M2604 3822 c3 -6 0 -17 -8 -25 -12 -11 -12 -19 -2 -38 9 -19 20 -24
51 -25 47 -1 73 20 67 53 -2 13 -8 20 -13 17 -5 -3 -9 -1 -9 5 0 5 -12 9 -27
7 -16 -1 -36 2 -47 7 -12 6 -16 6 -12 -1z"/>
<path d="M2840 3802 c-16 -18 -15 -51 2 -67 8 -7 8 -5 3 5 -7 13 -6 13 7 2 12
-10 17 -10 25 0 20 26 21 55 2 66 -23 15 -21 15 -39 -6z"/>
<path d="M2361 3791 c-8 -5 -29 -8 -48 -6 -20 1 -33 -2 -33 -9 0 -7 -12 -11
-27 -10 -16 1 -33 -3 -40 -8 -7 -5 -17 -7 -23 -3 -5 3 -13 -1 -16 -9 -3 -9
-10 -14 -14 -11 -11 7 -45 -27 -46 -47 -1 -10 4 -18 12 -18 8 0 14 -4 14 -10
0 -13 37 -13 46 1 3 6 15 9 25 6 10 -3 19 -1 21 5 2 5 12 11 23 13 11 2 21 4
23 5 1 2 7 4 12 5 6 1 11 3 13 5 2 2 39 9 65 12 6 1 12 6 12 12 0 6 4 6 8 -2
7 -10 13 -8 28 5 43 38 -6 95 -55 64z"/>
<path d="M4650 3720 c-12 -8 -82 -39 -100 -45 -3 -1 -25 -10 -50 -21 -25 -10
-48 -18 -52 -16 -5 1 -8 -3 -8 -9 0 -5 -4 -8 -9 -4 -5 3 -12 1 -16 -5 -4 -6
-11 -8 -16 -5 -5 4 -9 1 -9 -5 0 -7 -6 -10 -12 -8 -7 3 -21 -4 -32 -14 -11
-10 -30 -18 -42 -18 -13 0 -26 -5 -29 -11 -4 -6 -13 -8 -20 -5 -7 2 -16 -2
-19 -10 -3 -9 -10 -12 -16 -9 -5 3 -10 -1 -10 -10 0 -12 -4 -14 -19 -6 -14 8
-22 7 -31 -4 -7 -8 -16 -13 -20 -10 -4 3 -10 -2 -14 -10 -3 -8 -12 -12 -21 -9
-8 4 -15 1 -15 -6 0 -7 -8 -10 -19 -7 -12 3 -22 -1 -25 -10 -3 -8 -10 -11 -16
-8 -5 3 -10 2 -10 -4 0 -6 -6 -8 -14 -5 -9 3 -22 -5 -32 -21 -15 -23 -15 -28
-3 -36 8 -5 10 -9 6 -9 -5 0 -1 -7 7 -16 9 -8 14 -20 11 -25 -3 -4 1 -19 10
-32 8 -13 12 -27 8 -31 -10 -10 54 2 75 14 37 21 138 63 152 64 8 0 17 3 20 6
3 3 14 10 26 17 18 10 23 8 37 -17 9 -15 14 -30 10 -33 -3 -4 1 -9 10 -13 9
-3 14 -14 12 -25 -2 -10 1 -19 6 -19 6 0 7 -4 4 -10 -3 -5 -1 -10 5 -10 6 0 8
-4 5 -10 -3 -5 -1 -10 4 -10 16 0 13 -39 -4 -56 -8 -9 -15 -12 -15 -8 0 3 -6
2 -12 -4 -7 -6 -15 -10 -18 -10 -20 0 -60 -16 -60 -23 0 -5 -3 -8 -7 -7 -5 0
-16 -2 -25 -5 -10 -4 -26 -10 -35 -14 -10 -3 -21 -5 -25 -5 -5 1 -8 -1 -8 -6
0 -4 -13 -13 -28 -20 -27 -12 -28 -14 -18 -46 6 -19 15 -32 20 -29 5 3 6 1 2
-6 -9 -14 31 -81 47 -81 7 0 21 7 31 15 11 8 30 15 43 15 13 0 23 4 23 9 0 5
10 12 23 16 12 4 24 8 27 9 3 1 15 7 28 14 12 7 22 10 22 6 0 -3 7 -1 15 6 8
6 18 9 24 6 5 -3 12 1 15 10 3 8 10 13 15 10 5 -3 12 1 15 10 3 8 10 12 16 9
12 -7 70 16 70 28 0 5 5 5 10 2 6 -3 10 -1 10 5 0 6 4 9 9 5 5 -3 12 -1 16 4
3 6 12 8 20 4 8 -3 15 0 15 7 0 6 5 8 10 5 6 -3 10 -1 10 4 0 6 3 10 8 9 4 0
23 6 42 15 19 8 38 13 42 11 5 -3 8 0 8 6 0 6 5 8 10 5 6 -3 10 -2 10 3 0 9
21 19 61 28 56 13 78 45 51 76 -6 8 -9 18 -5 21 3 4 1 7 -5 7 -7 0 -12 8 -12
19 0 10 -6 31 -14 45 -12 23 -16 25 -28 13 -7 -8 -21 -13 -30 -11 -9 1 -19 -5
-22 -13 -4 -9 -13 -12 -26 -8 -11 3 -20 2 -20 -3 0 -8 -34 -26 -72 -37 -5 -1
-9 -3 -10 -5 -2 -1 -11 -3 -21 -5 -10 -2 -27 -11 -38 -21 -11 -10 -19 -12 -19
-6 0 7 -7 12 -17 12 -9 0 -13 3 -10 7 4 3 0 15 -10 25 -9 10 -13 18 -9 18 4 0
0 10 -8 21 -8 12 -12 28 -9 35 3 8 0 14 -6 14 -6 0 -11 9 -11 20 0 11 -4 20
-10 20 -34 0 59 67 103 74 7 1 18 5 25 9 6 5 16 6 21 3 4 -3 18 5 31 19 12 13
28 21 35 19 7 -3 16 0 20 5 3 6 11 9 16 6 5 -4 9 -1 9 5 0 6 4 9 9 6 5 -4 8 2
7 11 -2 9 -8 19 -14 21 -6 2 -8 10 -5 18 3 9 -4 29 -16 45 -12 16 -19 33 -17
38 3 5 -1 12 -10 15 -20 8 -25 7 -44 -4z"/>
<path d="M1881 3601 c-8 -11 -19 -18 -23 -15 -5 3 -17 -3 -27 -15 -10 -11 -21
-18 -25 -14 -3 3 -6 0 -6 -7 0 -7 -3 -11 -6 -7 -3 3 -17 -7 -31 -24 -14 -16
-30 -29 -36 -29 -6 0 -32 -22 -59 -50 -26 -27 -53 -50 -58 -50 -6 0 -10 -7
-10 -15 0 -8 -7 -15 -15 -15 -8 0 -15 -7 -15 -15 0 -9 -17 -33 -39 -55 -21
-21 -36 -42 -33 -45 4 -3 0 -10 -8 -15 -8 -5 -15 -17 -15 -27 0 -21 17 -43 28
-36 4 2 7 -1 7 -7 0 -7 23 11 50 39 28 28 50 55 50 60 0 5 12 19 26 30 15 12
23 21 18 21 -5 0 3 8 19 18 15 10 25 21 21 24 -3 4 4 9 15 13 12 3 19 10 17
14 -3 4 20 24 50 46 30 22 54 42 54 46 0 4 14 12 30 19 17 7 30 16 30 20 0 5
15 17 34 28 31 18 34 24 27 49 -9 35 -49 43 -70 14z"/>
<path d="M82 3103 c-6 -2 -10 -9 -7 -13 3 -5 -1 -28 -10 -52 -8 -25 -11 -44
-5 -46 6 -2 6 -11 0 -23 -7 -12 -7 -19 -1 -19 6 0 8 -6 5 -14 -6 -15 45 -76
64 -76 6 0 19 -10 29 -22 10 -13 25 -24 33 -26 7 -2 21 -12 30 -22 9 -10 23
-20 30 -22 8 -2 20 -7 26 -13 16 -14 -3 -48 -22 -41 -8 3 -17 -1 -20 -9 -4 -8
-12 -15 -20 -15 -8 0 -14 -4 -14 -9 0 -6 -9 -8 -20 -6 -11 2 -20 0 -20 -5 0
-5 -12 -13 -27 -16 -16 -4 -34 -11 -40 -17 -7 -5 -13 -6 -13 -3 0 4 -7 0 -16
-8 -8 -9 -20 -14 -25 -11 -8 5 -13 -19 -6 -28 1 -2 -4 -11 -10 -19 -8 -9 -13
-42 -12 -86 1 -69 2 -72 25 -70 13 1 24 8 24 16 0 7 4 11 10 7 10 -6 50 13 62
30 4 6 8 7 8 2 0 -4 11 0 25 9 14 9 25 13 25 8 0 -4 7 1 16 12 8 10 13 12 9 4
-4 -8 1 -6 9 4 9 11 16 17 16 13 0 -4 10 -1 23 8 13 8 27 12 32 8 4 -5 6 -3 2
2 -3 6 6 15 19 22 18 8 22 8 17 0 -4 -7 6 -2 21 11 16 12 34 22 40 22 6 0 22
9 36 20 25 19 117 29 106 12 -3 -5 33 -8 80 -8 54 1 89 -3 95 -11 11 -12 27
-12 47 0 6 5 12 4 12 -2 0 -13 37 -6 53 11 13 14 17 125 4 144 -3 6 -19 10
-34 9 -15 -1 -34 2 -40 8 -7 5 -19 7 -28 4 -8 -4 -17 -2 -20 4 -4 6 -13 6 -23
0 -9 -5 -26 -5 -39 0 -15 5 -23 5 -23 -2 0 -6 -9 -5 -22 3 -13 6 -39 12 -58
13 -19 0 -41 5 -49 9 -10 7 -12 5 -6 -3 5 -9 2 -9 -13 0 -12 7 -19 15 -17 17
6 6 -34 42 -48 42 -7 0 -25 14 -39 30 -15 17 -31 31 -35 30 -4 0 -21 12 -37
27 -16 16 -32 27 -35 26 -3 -1 -20 14 -37 32 -17 19 -37 35 -44 37 -8 2 -28
18 -46 36 -18 17 -34 32 -36 31 -1 0 -9 -3 -16 -6z"/>
<path d="M1379 3023 c-1 -5 -1 -11 0 -15 0 -5 -6 -8 -14 -8 -15 0 -18 -7 -18
-42 0 -10 -4 -15 -8 -12 -5 3 -9 -6 -9 -20 0 -14 -5 -28 -11 -32 -6 -3 -9 -15
-6 -25 3 -11 1 -17 -4 -13 -5 3 -9 2 -10 -3 0 -4 -2 -22 -4 -40 -2 -17 -8 -40
-14 -51 -8 -15 -8 -23 -1 -27 8 -5 7 -12 -2 -22 -7 -8 -13 -33 -14 -54 -1 -22
-4 -42 -7 -45 -3 -3 -2 -18 3 -34 5 -18 4 -32 -3 -39 -8 -8 -7 -11 3 -11 12
-1 12 -3 -1 -13 -12 -9 -15 -26 -13 -64 1 -29 6 -58 10 -65 4 -7 8 -37 7 -68
0 -30 3 -59 7 -65 4 -5 6 -20 5 -32 -1 -13 3 -23 8 -23 5 0 5 -6 -2 -13 -6 -9
-7 -17 -1 -23 5 -5 11 -18 13 -29 2 -11 9 -30 15 -42 8 -15 9 -23 2 -23 -6 0
-4 -10 5 -24 9 -13 15 -28 14 -32 -4 -17 27 -74 36 -67 4 5 5 2 1 -5 -10 -17
63 -164 78 -155 6 3 8 3 4 -2 -4 -4 -3 -14 3 -21 6 -8 9 -21 5 -29 -3 -9 -2
-13 3 -10 5 3 16 -4 24 -15 7 -11 17 -17 22 -12 4 4 5 -1 2 -10 -4 -11 2 -24
18 -37 14 -10 25 -24 25 -30 0 -6 6 -11 14 -11 8 0 16 -6 19 -12 3 -10 10 -8
25 5 21 19 22 59 2 65 -10 4 -41 56 -40 67 0 3 -10 17 -22 31 -49 54 -54 61
-51 71 2 5 -3 16 -12 23 -8 7 -15 19 -15 26 0 8 -4 14 -10 14 -5 0 -7 7 -4 15
4 8 1 15 -6 15 -6 0 -9 4 -6 9 3 5 -2 12 -11 15 -15 6 -15 8 -3 16 10 6 11 10
3 10 -7 0 -10 7 -7 15 4 10 0 15 -12 15 -14 0 -15 3 -6 12 9 9 8 15 -2 27 -8
9 -15 19 -15 24 1 17 -14 73 -21 82 -4 6 -7 21 -6 35 1 14 -3 34 -9 45 -6 11
-11 46 -10 78 0 31 -2 57 -6 57 -11 0 -16 34 -9 55 4 11 5 24 2 29 -8 14 -2
119 7 131 5 5 7 33 7 60 -1 28 2 59 8 70 5 11 9 30 7 43 -1 12 3 22 9 22 7 0
10 8 7 20 -3 11 0 20 6 20 7 0 5 5 -3 10 -13 8 -8 14 11 12 3 -1 6 4 6 11 2
31 15 82 25 94 6 7 7 13 3 13 -4 0 -2 7 5 15 10 12 10 15 0 15 -8 0 -11 3 -7
6 7 8 -17 34 -32 34 -6 0 -12 -3 -12 -7z"/>
<path d="M4544 2559 c-3 -6 -21 -9 -39 -7 -18 2 -37 -2 -44 -9 -6 -7 -20 -13
-31 -13 -22 0 -88 -36 -110 -60 -8 -9 -23 -19 -33 -23 -9 -4 -16 -10 -15 -14
2 -5 -9 -22 -24 -38 -16 -16 -28 -35 -28 -42 0 -7 -5 -13 -11 -13 -5 0 -8 -4
-4 -9 3 -5 1 -12 -5 -16 -6 -3 -8 -17 -6 -30 3 -13 0 -25 -6 -27 -15 -5 -16
-220 -1 -225 6 -2 9 -13 6 -23 -4 -16 0 -20 23 -21 16 -1 37 0 48 1 12 1 16
-2 10 -11 -5 -9 -2 -11 9 -6 9 3 18 1 21 -6 3 -8 5 -8 5 -1 1 12 92 7 101 -5
3 -4 38 -7 78 -7 68 0 73 1 71 20 -2 12 1 32 6 46 16 47 12 88 -11 99 -11 5
-27 6 -33 1 -7 -4 -25 -1 -40 6 -15 7 -46 12 -69 10 -23 -2 -42 1 -42 5 0 5
-5 8 -12 7 -21 -5 -18 54 4 85 12 17 17 27 10 23 -8 -5 -10 -2 -6 8 3 9 10 16
14 16 5 0 12 9 15 20 4 11 10 18 15 15 5 -3 12 1 17 8 9 16 43 35 82 47 14 4
35 11 45 16 14 5 17 4 11 -5 -6 -10 -3 -11 15 -1 19 10 24 10 31 -3 5 -8 19
-13 34 -12 14 2 25 -1 25 -6 0 -5 7 -9 15 -9 8 0 15 -5 15 -12 0 -6 3 -9 6 -5
8 8 73 -61 86 -93 13 -30 18 -110 6 -110 -4 0 -3 -12 3 -27 13 -35 13 -34 0
-42 -6 -4 -12 -16 -14 -26 -1 -11 -6 -26 -10 -32 -5 -7 -5 -13 -1 -13 4 0 -1
-7 -12 -15 -10 -8 -17 -15 -14 -15 3 -1 13 -3 23 -5 10 -2 26 -7 35 -11 9 -3
28 -8 42 -10 14 -2 37 -6 53 -10 21 -5 27 -3 27 10 0 10 4 15 8 12 7 -4 12 17
15 62 0 6 3 12 7 12 7 0 20 74 24 143 1 20 -3 42 -10 48 -6 5 -10 19 -7 29 3
11 -3 37 -13 57 -10 21 -17 44 -16 51 2 7 -4 15 -13 18 -8 3 -15 12 -15 18 0
15 -64 86 -78 86 -6 0 -16 8 -21 18 -6 9 -11 14 -11 10 0 -4 -20 4 -45 18 -25
13 -45 21 -45 17 0 -4 -5 -2 -12 5 -7 7 -31 12 -53 12 -23 0 -45 3 -49 7 -12
12 -45 13 -52 2z"/>
<path d="M900 1929 c0 -6 -4 -8 -9 -4 -5 3 -12 1 -16 -5 -3 -5 -15 -10 -26
-10 -11 0 -17 -4 -14 -10 3 -6 -1 -7 -9 -4 -9 3 -16 1 -16 -6 0 -6 -4 -9 -9
-5 -5 3 -12 1 -16 -5 -4 -6 -11 -8 -16 -5 -5 4 -9 2 -9 -2 0 -5 -20 -14 -45
-21 -25 -7 -45 -17 -45 -23 0 -5 -4 -7 -10 -4 -5 3 -28 -3 -50 -14 -23 -11
-54 -23 -70 -26 -17 -4 -30 -11 -30 -16 0 -5 -12 -9 -26 -9 -14 0 -23 -4 -19
-10 4 -6 -5 -10 -19 -10 -14 0 -26 -4 -26 -9 0 -6 -9 -8 -20 -6 -14 3 -20 -2
-20 -13 0 -13 -2 -14 -9 -3 -6 9 -10 10 -16 2 -5 -9 -10 -9 -21 0 -7 6 -11 15
-8 20 3 5 0 9 -5 9 -6 0 -11 11 -11 25 0 14 -4 25 -10 25 -5 0 -10 9 -10 20 0
11 -4 20 -9 20 -6 0 -8 9 -6 19 5 24 -30 35 -50 15 -8 -8 -17 -14 -20 -14 -3
0 -24 -5 -46 -12 -44 -13 -59 -32 -40 -51 6 -6 11 -21 11 -34 0 -13 5 -23 11
-23 5 0 7 -4 4 -10 -3 -5 -1 -10 4 -10 6 0 10 -3 10 -7 -3 -17 14 -73 22 -73
5 0 9 -9 9 -20 0 -11 5 -20 10 -20 6 0 10 -11 10 -24 0 -14 5 -28 10 -31 6 -4
8 -11 5 -16 -4 -5 -1 -9 4 -9 6 0 11 -9 11 -19 0 -11 5 -23 10 -26 6 -4 8 -11
5 -16 -4 -5 0 -12 8 -15 9 -3 12 -14 9 -30 -2 -14 0 -24 7 -24 6 0 11 -8 11
-17 0 -22 47 -78 52 -63 2 6 13 12 26 13 12 0 22 5 22 10 0 5 6 7 14 4 8 -3
17 1 20 9 3 9 10 12 16 9 5 -3 10 -1 10 5 0 6 4 9 9 5 5 -3 9 8 9 24 -1 18 -5
28 -11 24 -6 -4 -8 0 -4 10 3 10 2 17 -3 17 -6 0 -10 9 -10 21 0 12 -4 17 -11
13 -6 -4 -9 1 -8 12 2 11 -2 28 -8 40 -10 18 -8 23 19 39 21 12 28 14 23 4 -5
-8 2 -5 15 6 15 13 21 15 16 5 -4 -8 -1 -7 8 4 8 10 23 20 33 21 33 4 63 17
63 27 0 6 7 8 15 4 8 -3 20 1 27 8 7 7 19 11 26 8 6 -2 12 1 12 7 0 6 3 10 8
9 8 -1 29 6 79 28 18 8 34 13 36 12 2 -2 11 3 20 11 10 7 17 10 17 7 0 -4 10
0 22 8 12 9 32 16 44 16 12 0 27 7 34 15 7 8 16 12 21 9 5 -3 9 0 9 6 0 6 5 8
11 4 8 -4 9 1 3 17 -4 13 -7 30 -7 37 0 6 -4 12 -9 12 -4 0 -8 9 -8 19 0 11
-4 23 -10 26 -5 3 -10 14 -10 25 0 10 -7 20 -15 24 -8 3 -15 1 -15 -5z"/>
<path d="M4178 1842 c-10 -2 -18 -8 -18 -13 0 -6 -5 -7 -10 -4 -6 4 -21 0 -33
-8 -12 -8 -26 -16 -31 -18 -22 -9 -77 -69 -72 -77 3 -6 -1 -13 -9 -16 -15 -6
-37 -48 -40 -76 0 -8 -5 -24 -11 -35 -16 -34 -7 -122 18 -170 22 -40 97 -115
116 -115 9 0 13 -3 9 -6 -3 -4 24 -22 61 -41 37 -19 69 -38 70 -44 2 -5 12 -9
23 -9 10 0 19 -5 19 -11 0 -5 5 -7 10 -4 6 3 10 1 10 -5 0 -6 4 -9 9 -5 5 3
17 -2 25 -11 9 -8 16 -12 16 -7 1 4 9 -1 18 -12 10 -11 24 -21 32 -23 8 -2 18
-9 22 -15 4 -7 8 -8 8 -3 0 5 10 1 22 -10 13 -12 18 -13 13 -4 -8 13 -7 13 11
0 10 -8 29 -23 41 -33 33 -29 55 -14 89 60 l32 68 -22 15 c-11 8 -24 15 -28
15 -4 0 -13 6 -19 13 -7 6 -19 12 -27 12 -7 0 -10 5 -7 10 4 6 3 9 -2 8 -13
-3 -83 25 -83 34 0 4 -6 8 -14 8 -8 0 -17 8 -20 17 -6 14 -9 15 -15 4 -7 -10
-10 -9 -14 3 -4 9 -13 16 -22 16 -8 0 -15 4 -15 10 0 5 -7 7 -15 4 -8 -4 -15
-1 -15 7 0 7 -3 10 -6 7 -3 -3 -17 5 -31 18 -14 13 -30 22 -37 21 -6 -1 -10 4
-8 12 3 12 0 12 -12 2 -13 -11 -17 -10 -22 3 -3 9 -12 16 -18 16 -7 0 -22 11
-34 25 -12 14 -17 25 -11 25 8 0 8 5 -1 15 -7 8 -8 15 -3 15 5 0 7 16 5 35 -4
30 1 41 27 65 17 17 38 30 46 30 9 0 14 4 11 9 -7 10 47 9 55 -2 3 -4 16 -10
30 -12 13 -3 32 -14 42 -26 9 -12 17 -16 17 -9 0 7 8 3 19 -8 10 -12 26 -22
35 -22 9 0 16 -4 16 -10 0 -5 3 -9 8 -8 14 3 62 -22 62 -32 0 -6 4 -9 9 -5 5
3 15 -1 23 -8 12 -12 45 -29 60 -31 4 -1 13 -7 20 -13 6 -7 18 -13 25 -13 7 0
13 -5 13 -11 0 -5 4 -8 9 -4 5 3 12 1 16 -5 3 -6 20 -17 37 -26 27 -14 31 -14
49 2 10 9 16 20 14 24 -3 4 2 13 10 20 8 7 15 19 15 26 0 8 5 14 11 14 6 0 9
7 6 15 -4 8 -1 17 5 21 6 4 2 12 -13 20 -13 7 -28 10 -33 7 -5 -4 -7 -2 -4 3
7 11 -17 35 -26 27 -3 -3 -8 2 -12 11 -3 9 -10 13 -16 10 -5 -3 -18 2 -29 12
-10 9 -19 13 -19 8 0 -5 -7 0 -15 10 -8 11 -15 15 -15 8 0 -6 -11 0 -25 14
-14 14 -30 22 -35 19 -6 -3 -10 -1 -10 4 0 6 -5 11 -11 11 -6 0 -25 10 -42 22
-17 12 -27 16 -23 9 7 -10 4 -10 -12 0 -12 7 -20 15 -20 18 2 19 -4 24 -12 11
-8 -13 -10 -13 -10 2 0 11 -5 15 -15 12 -8 -4 -15 -1 -15 6 0 6 -4 8 -10 5 -5
-3 -10 -2 -10 3 0 9 -37 25 -53 23 -4 -1 -18 4 -30 11 -28 16 -39 17 -55 4 -8
-6 -16 -6 -20 0 -8 10 -27 12 -54 6z"/>
<path d="M1022 1459 c2 -9 -11 -14 -42 -15 -57 -1 -110 -14 -110 -26 0 -5 -4
-7 -9 -4 -4 3 -21 -5 -37 -19 -15 -13 -30 -23 -33 -21 -7 3 -110 -102 -111
-112 0 -4 -6 -14 -14 -23 -13 -16 -26 -46 -26 -62 0 -4 -6 -20 -13 -35 -7 -15
-12 -35 -10 -44 3 -10 0 -18 -5 -18 -5 0 -8 -24 -7 -52 1 -29 4 -53 5 -53 1 0
4 -13 6 -28 1 -15 10 -42 18 -59 9 -17 16 -37 16 -44 0 -7 9 -16 21 -19 11 -4
18 -12 16 -18 -4 -13 89 -107 125 -126 15 -8 26 -17 24 -20 -2 -3 7 -7 21 -8
14 0 28 -5 32 -10 3 -4 13 -9 21 -11 8 -2 16 -7 18 -11 1 -4 29 -4 62 -1 33 3
69 2 80 -2 15 -5 25 -2 37 12 12 14 21 16 35 9 10 -5 18 -6 18 -2 0 12 51 33
63 26 6 -3 7 -1 3 5 -3 6 3 13 14 17 34 11 138 125 156 171 9 24 20 42 23 39
4 -2 8 12 9 32 2 20 6 41 10 47 12 20 8 145 -5 150 -7 3 -10 12 -7 20 3 8 1
17 -5 21 -6 3 -11 15 -11 26 0 11 -9 29 -20 41 -11 12 -20 27 -20 34 0 6 -9
14 -20 17 -12 3 -20 14 -20 27 0 11 -4 18 -10 15 -5 -3 -10 1 -10 9 0 9 -5 16
-11 16 -5 0 -7 -6 -4 -12 4 -7 -1 -4 -9 6 -9 11 -16 24 -16 30 0 5 -3 7 -6 3
-3 -3 -15 3 -27 14 -11 10 -29 19 -39 19 -10 0 -18 5 -18 10 0 6 -11 10 -25
10 -14 0 -25 5 -25 10 0 6 -15 9 -35 7 -20 -3 -43 2 -55 10 -16 11 -20 11 -18
2z m8 -202 c0 -5 6 -5 13 0 18 12 60 10 75 -5 8 -7 18 -10 23 -7 5 4 9 -1 9
-10 0 -9 4 -14 9 -10 5 3 12 -4 16 -15 3 -11 12 -20 20 -20 7 0 21 -18 31 -40
10 -22 22 -40 27 -40 5 0 7 -7 3 -15 -3 -8 -2 -15 3 -15 9 0 8 -37 -2 -46 -4
-4 -2 -13 4 -21 9 -10 7 -18 -9 -32 -15 -12 -18 -21 -11 -28 8 -8 5 -15 -11
-23 -11 -6 -20 -16 -17 -23 4 -13 -32 -51 -52 -54 -8 -1 -18 -9 -23 -17 -5 -9
-20 -16 -34 -16 -14 0 -23 -4 -20 -8 3 -5 -25 -8 -62 -7 -64 1 -73 4 -154 51
-11 6 -20 15 -20 20 -2 12 -25 34 -30 29 -2 -2 -4 4 -4 13 -1 24 -8 46 -16 52
-13 10 -16 53 -6 85 5 17 11 38 13 49 2 10 15 33 29 51 14 18 23 35 20 38 -3
3 4 10 15 17 12 6 21 8 21 5 0 -3 10 3 22 15 20 19 33 24 51 21 4 0 7 3 7 8 0
4 13 8 30 7 16 -1 30 -5 30 -9z"/>
<path d="M3787 1368 c2 -5 0 -8 -6 -8 -5 0 -30 -19 -54 -43 -42 -42 -43 -44
-28 -68 8 -13 34 -43 58 -66 24 -24 40 -43 37 -43 -4 0 3 -9 16 -20 13 -11 19
-20 14 -20 -5 0 5 -11 21 -25 17 -13 25 -24 19 -25 -7 0 -14 -9 -17 -20 -3
-14 -14 -20 -31 -20 -14 0 -26 5 -26 11 0 5 -3 8 -8 5 -4 -2 -25 4 -47 14 -22
10 -43 16 -47 14 -5 -3 -8 0 -8 6 0 7 -6 10 -14 7 -8 -3 -16 -1 -18 5 -2 6
-11 12 -19 14 -30 5 -44 9 -50 17 -3 4 -16 9 -27 10 -12 1 -22 5 -22 9 0 4 -7
8 -15 8 -8 0 -15 -4 -15 -10 0 -5 -7 -10 -16 -10 -8 0 -13 -4 -10 -8 3 -5 -9
-17 -27 -27 -18 -10 -42 -30 -54 -43 -18 -22 -19 -27 -7 -39 8 -8 18 -12 23
-8 5 3 12 1 16 -5 3 -5 17 -10 30 -10 13 0 27 -4 30 -10 3 -5 17 -10 31 -10
17 0 23 -4 18 -12 -5 -7 0 -9 14 -6 12 3 23 1 25 -5 1 -5 10 -12 18 -13 42 -8
60 -14 81 -25 13 -7 24 -12 26 -11 10 7 12 -1 3 -12 -9 -11 -9 -15 0 -18 8 -3
8 -8 -2 -19 -15 -16 -22 -37 -20 -56 1 -7 2 -24 3 -38 1 -14 6 -25 11 -25 5 0
7 -6 4 -13 -3 -7 4 -24 14 -38 10 -13 19 -30 19 -36 0 -7 5 -13 11 -13 5 0 7
-5 4 -10 -3 -6 1 -10 9 -10 8 0 18 -9 21 -20 4 -11 10 -18 15 -15 5 3 12 0 15
-6 4 -5 13 -8 21 -5 7 3 18 -3 23 -12 6 -9 11 -13 11 -8 0 5 7 3 15 -4 12 -10
15 -10 15 0 0 10 3 10 15 0 16 -14 67 -21 59 -9 -5 9 10 13 30 10 5 -1 16 5
25 13 9 8 25 16 36 18 11 1 32 18 48 37 15 19 27 30 27 25 0 -5 7 -1 15 10 8
11 19 15 27 10 7 -4 10 -4 7 0 -7 8 90 106 104 106 13 0 37 27 30 34 -4 3 -1
6 5 6 6 0 1 12 -12 26 -53 58 -61 69 -59 76 2 4 -5 9 -15 12 -10 3 -25 18 -34
33 -9 16 -39 52 -67 81 -28 30 -49 58 -46 63 4 5 -1 9 -10 9 -8 0 -18 7 -22
16 -3 9 -22 32 -42 51 -20 19 -29 31 -21 27 8 -4 -9 16 -38 44 -30 29 -51 52
-47 52 3 0 -3 10 -15 22 -11 12 -20 25 -20 30 0 4 -7 8 -16 8 -8 0 -13 4 -10
9 3 5 -1 12 -10 15 -8 3 -13 10 -10 15 3 5 -5 8 -18 7 -13 0 -22 -4 -19 -8z
m209 -462 c8 -8 14 -18 14 -21 0 -4 16 -22 35 -41 19 -18 35 -37 35 -40 0 -4
-11 -17 -26 -30 -14 -13 -21 -24 -17 -24 4 0 -7 -9 -25 -20 -18 -11 -39 -20
-47 -20 -8 0 -15 -4 -15 -8 0 -5 -7 -9 -15 -9 -8 0 -15 4 -15 9 0 4 -5 8 -11
8 -19 0 -39 28 -43 59 -3 30 25 83 49 92 6 2 9 7 8 12 -2 4 4 7 13 7 8 0 12 5
9 10 -3 6 1 10 9 10 9 0 16 5 16 10 0 14 9 12 26 -4z"/>
<path d="M3279 1193 c-1 -5 -1 -11 0 -15 0 -5 -3 -8 -8 -8 -19 0 -7 -39 14
-48 25 -11 37 -6 52 23 9 15 7 23 -9 37 -22 18 -47 24 -49 11z"/>
<path d="M1640 1021 c-8 -8 -15 -18 -15 -21 0 -3 -4 -11 -8 -17 -5 -7 -5 -17
-2 -23 3 -5 1 -10 -4 -10 -6 0 -11 -7 -11 -15 0 -8 -4 -15 -9 -15 -5 0 -7 -9
-4 -20 3 -11 0 -20 -6 -20 -5 0 -8 -6 -5 -14 3 -7 -2 -16 -12 -20 -13 -5 -14
-9 -5 -20 9 -11 9 -15 0 -18 -7 -2 -13 -11 -15 -19 -1 -7 -8 -27 -15 -44 -7
-16 -12 -33 -11 -37 1 -5 -2 -8 -8 -8 -5 0 -7 -7 -4 -15 4 -8 2 -15 -4 -15 -5
0 -12 -18 -16 -40 -4 -27 -10 -39 -18 -34 -7 4 -8 3 -4 -4 4 -7 0 -26 -8 -44
-18 -41 -31 -81 -28 -90 1 -5 -2 -8 -7 -8 -7 0 -17 -30 -21 -68 -1 -4 -8 -11
-16 -15 -8 -5 -12 -13 -8 -18 3 -5 1 -15 -4 -22 -8 -11 -9 -46 0 -51 2 -1 30
-13 63 -27 63 -26 100 -27 91 -3 -3 7 1 20 9 28 8 7 11 16 8 20 -4 3 -1 6 4 6
6 0 10 11 8 25 -1 15 4 29 14 35 9 4 13 12 9 16 -4 3 0 21 9 38 9 17 18 40 20
51 2 10 8 22 14 25 5 4 9 11 8 16 -4 14 11 54 21 54 5 0 7 9 5 19 -2 11 3 25
11 32 12 10 13 9 8 -5 -3 -9 -1 -16 5 -16 6 0 11 -11 11 -24 0 -14 5 -28 11
-31 5 -4 9 -14 7 -23 -2 -10 3 -25 12 -35 8 -10 15 -21 15 -25 0 -4 4 -13 8
-19 5 -8 3 -13 -5 -13 -8 0 -7 -4 4 -11 9 -5 15 -16 12 -23 -3 -8 -1 -17 5
-21 6 -3 11 -17 11 -31 0 -13 5 -24 10 -24 6 0 10 -9 10 -20 0 -11 5 -20 11
-20 6 0 9 -7 5 -15 -3 -8 1 -21 9 -29 8 -7 12 -16 9 -19 -3 -3 4 -26 16 -52
12 -26 19 -49 16 -52 -11 -11 33 -45 51 -39 23 7 49 46 31 46 -8 0 -5 7 6 15
11 8 16 15 12 15 -5 0 -4 6 1 13 5 6 16 32 23 57 7 25 17 50 22 56 4 6 5 14 1
17 -3 4 2 7 12 7 14 0 16 3 8 11 -9 9 -8 18 4 35 8 13 12 27 9 32 -3 6 1 15
10 22 8 7 13 19 10 26 -3 7 2 15 9 18 8 3 12 12 9 19 -3 8 2 22 11 31 9 9 12
16 6 16 -13 0 6 39 28 56 10 8 11 13 3 18 -9 5 -8 13 3 30 8 12 12 26 8 29 -3
4 -1 7 6 7 7 0 9 5 6 10 -3 6 -1 10 5 10 6 0 9 4 5 9 -3 5 2 17 11 25 10 11
11 16 3 16 -8 0 -5 7 6 20 10 11 15 20 11 20 -3 0 1 17 9 37 9 20 13 34 9 30
-4 -3 -19 0 -35 9 -16 8 -29 11 -29 7 0 -5 -5 0 -11 10 -6 9 -15 15 -20 11 -5
-3 -16 0 -24 6 -15 13 -59 4 -50 -10 3 -5 -4 -25 -15 -46 -12 -20 -19 -43 -16
-51 3 -7 -1 -16 -8 -19 -8 -3 -13 -13 -12 -22 2 -9 -4 -22 -13 -29 -12 -9 -12
-12 -3 -13 10 0 10 -4 -2 -16 -9 -8 -16 -24 -16 -34 0 -10 -4 -21 -10 -25 -5
-3 -7 -12 -3 -20 3 -8 -1 -15 -8 -15 -7 0 -10 -3 -6 -6 3 -4 -1 -13 -9 -21 -8
-8 -12 -18 -9 -23 3 -5 1 -11 -5 -15 -6 -4 -10 5 -10 19 0 14 -4 26 -9 26 -8
0 -22 37 -19 50 1 3 -5 16 -12 30 -8 14 -13 28 -12 33 1 4 -3 7 -9 7 -6 0 -9
6 -6 14 3 8 -1 20 -9 27 -8 7 -12 20 -9 30 4 11 2 19 -4 19 -6 0 -11 9 -11 20
0 11 -4 20 -8 20 -5 0 -9 6 -9 14 0 21 -24 76 -32 72 -4 -3 -6 8 -5 22 0 15
-5 33 -13 40 -7 7 -13 24 -13 37 0 13 -5 27 -10 30 -6 4 -7 11 -4 17 4 7 2 8
-4 4 -7 -4 -12 -3 -12 2 0 14 -25 10 -40 -7z"/>
<path d="M3106 929 c2 -4 -16 -14 -41 -23 -24 -10 -61 -35 -82 -56 -50 -51
-65 -70 -56 -70 4 0 2 -5 -5 -12 -7 -7 -12 -22 -12 -35 0 -13 -3 -23 -7 -23
-5 0 -9 -23 -11 -50 -1 -31 2 -50 8 -50 6 0 10 -11 8 -24 -1 -13 3 -34 9 -47
20 -39 37 -83 39 -103 1 -10 5 -21 10 -25 5 -3 10 -17 12 -31 1 -13 7 -27 13
-31 6 -3 10 -9 10 -13 -2 -19 13 -66 21 -66 5 0 8 -6 5 -12 -2 -7 2 -25 10
-40 7 -16 11 -28 7 -28 -4 0 -1 -7 6 -15 6 -8 9 -19 5 -25 -3 -5 1 -10 10 -10
13 0 14 -4 4 -21 -7 -13 -7 -19 -1 -15 6 3 13 -3 17 -14 5 -15 13 -19 35 -17
16 2 35 9 42 15 7 5 27 14 43 18 41 9 47 13 38 27 -4 6 -8 20 -8 30 -1 10 -7
22 -14 27 -10 5 -10 9 -2 15 9 5 9 11 -1 22 -7 9 -13 21 -14 27 -3 26 -17 56
-26 56 -6 0 -8 11 -6 25 3 13 1 26 -4 27 -5 2 -10 10 -12 18 -4 24 -27 90 -42
118 -7 14 -11 29 -8 34 3 4 0 8 -7 8 -7 0 -9 10 -7 25 3 13 0 26 -6 28 -6 2
-11 26 -11 53 0 51 21 85 71 110 26 14 94 16 94 3 0 -5 7 -9 16 -9 8 0 12 -4
9 -10 -3 -5 1 -10 10 -10 9 0 14 -4 11 -9 -4 -5 -2 -11 4 -13 6 -2 12 -14 15
-27 2 -13 11 -33 18 -45 8 -11 13 -31 12 -43 -1 -12 2 -20 7 -17 4 3 8 -4 8
-15 0 -11 7 -27 16 -35 10 -10 11 -16 4 -16 -8 0 -7 -8 4 -25 9 -14 13 -25 10
-25 -4 0 1 -10 12 -22 10 -12 14 -18 7 -15 -7 5 -6 -4 4 -23 8 -17 12 -37 9
-45 -3 -8 0 -14 6 -12 7 1 12 -9 13 -22 0 -13 5 -26 12 -28 7 -3 10 -10 7 -18
-3 -7 -1 -16 5 -20 6 -3 11 -15 11 -25 0 -10 6 -20 13 -23 13 -4 47 12 59 28
5 6 8 4 8 -4 0 -12 3 -11 18 1 9 9 23 13 31 10 8 -3 11 0 7 7 -5 7 1 11 14 11
17 0 19 3 11 19 -6 10 -7 21 -4 25 3 3 1 6 -6 6 -7 0 -9 5 -6 10 4 6 1 18 -7
27 -7 9 -12 18 -10 20 1 2 -5 20 -13 40 -9 20 -14 42 -11 49 3 7 -2 15 -10 18
-8 3 -14 17 -14 31 0 14 -5 25 -11 25 -6 0 -8 7 -5 16 3 8 -1 25 -8 37 -8 12
-16 31 -18 42 -2 11 -6 23 -10 26 -5 3 -9 17 -10 32 -1 15 -8 27 -15 27 -7 0
-10 6 -7 14 13 35 -103 186 -143 186 -8 0 -11 5 -7 12 4 7 3 8 -4 4 -7 -4 -18
-4 -24 1 -15 9 -188 11 -182 2z"/>
</g>
</svg>
